<?xml version="1.0" encoding="UTF-8"?>
<svg id="Layer_1" data-name="Layer 1" xmlns="http://www.w3.org/2000/svg" viewBox="0 0 320 320">
  <defs>
    <style>
      .cls-1 {
        fill: #e5793e;
        stroke-width: 0px;
      }

      .cls-2 {
        fill: none;
        stroke: #e5793c;
        stroke-miterlimit: 10;
        stroke-width: 17px;
      }
    </style>
  </defs>
  <polygon class="cls-1" points="157.13 143.77 114.8 140.3 114.8 199.26 173.77 206.78 173.77 160.4 157.13 143.77"/>
  <path class="cls-1" d="M319.74,319.74V0S0,0,0,0v214.9h0v105.1s319.74,0,319.74,0v-.26h0ZM25.37,123.65h0V25.37s97.91,0,97.91,0c.04.09.08.17.12.26h170.98s0,268.75,0,268.75H123.39c-.04.09-.08.17-.12.26H25.37s0-170.98,0-170.98Z"/>
  <polygon class="cls-1" points="182.48 88.27 32.18 100.59 88.17 176.24 87.31 109.86 135.84 113.93 198.58 176.58 287.56 133.99 287.56 100.18 262.58 88.27 182.48 88.27"/>
  <polygon class="cls-1" points="200.91 182.82 200.91 231.48 287.97 163.63 287.97 138.11 200.91 182.82"/>
  <polygon class="cls-1" points="183.06 168.77 183.06 217.27 105.51 207.37 105.51 129.82 147.59 133.3 133.24 118.94 92.9 115.61 92.9 218.36 195.66 231.48 195.66 181.37 183.06 168.77"/>
  <polygon class="cls-1" points="179.82 235.95 198.79 239.15 216.48 225.7 216.48 308.97 179.82 308.97 179.82 235.95"/>
  <path class="cls-2" d="M267.33,176.58s9.2,25.48-4.64,36.17c-37.08,28.65-9.55,53.99-46.21,56.91"/>
</svg>