<?xml version="1.0" encoding="UTF-8"?>
<svg id="Layer_1" data-name="Layer 1" xmlns="http://www.w3.org/2000/svg" viewBox="0 0 320 320">
  <defs>
    <style>
      .cls-1 {
        fill: #34a753;
      }

      .cls-1, .cls-2 {
        stroke-width: 0px;
      }

      .cls-2 {
        fill: #202224;
      }
    </style>
  </defs>
  <path class="cls-1" d="M319.66,252.73H.34c1.75-15.59,5.59-30.66,11.86-45.04,13.15-30.17,33.43-54.34,61.17-72.16,1.53-.98,1.84-1.66.85-3.28-2.73-4.45-5.27-9.02-7.89-13.54-5.52-9.53-11.06-19.05-16.57-28.58-3.01-5.22-3.41-10.58-.14-15.77,6.12-9.73,19.61-9.38,25.49.66,8.53,14.57,16.97,29.18,25.33,43.85,1.06,1.85,1.9,1.93,3.71,1.25,13-4.92,26.46-8.02,40.29-9.3,24.89-2.3,49.12.69,72.53,9.62,1.54.59,2.08.14,2.77-1.1,1.98-3.59,4.08-7.11,6.14-10.66,6.48-11.2,12.95-22.41,19.46-33.59,3.41-5.85,9.06-8.64,15.14-7.6,10.59,1.81,15.89,12.75,10.55,22.1-8.13,14.24-16.38,28.41-24.66,42.56-1.01,1.73-1.02,2.51.82,3.67,14.33,9.07,26.82,20.24,37.47,33.43,19.73,24.44,31.82,52.1,35.02,83.49ZM248.66,197.83c-.02-7.63-5.21-15.28-12.29-18.1-9.11-3.63-17.82,2.14-17.58,11.96.2,8.26,4.26,14.43,11.76,17.94,9.24,4.31,18.13-1.59,18.11-11.79ZM101.84,191.81c.02-10.13-8.77-15.96-17.98-11.75-7.49,3.43-11.44,9.59-11.82,17.71-.47,9.85,8.14,15.8,17.33,12.28,7.25-2.77,12.46-10.39,12.47-18.24Z"/>
  <path class="cls-2" d="M248.66,197.83c.02,10.21-8.88,16.11-18.11,11.79-7.51-3.5-11.56-9.67-11.76-17.94-.23-9.82,8.47-15.6,17.58-11.96,7.08,2.83,12.28,10.48,12.29,18.1Z"/>
  <path class="cls-2" d="M101.84,191.81c-.01,7.85-5.22,15.47-12.47,18.24-9.2,3.51-17.8-2.43-17.33-12.28.39-8.12,4.34-14.28,11.82-17.71,9.21-4.21,18,1.62,17.98,11.75Z"/>
</svg>