<?xml version="1.0" encoding="UTF-8"?>
<svg id="Layer_1" data-name="Layer 1" xmlns="http://www.w3.org/2000/svg" xmlns:xlink="http://www.w3.org/1999/xlink" viewBox="0 0 320 320">
  <defs>
    <style>
      .cls-1 {
        fill: url(#linear-gradient);
      }

      .cls-1, .cls-2, .cls-3, .cls-4, .cls-5, .cls-6, .cls-7, .cls-8, .cls-9, .cls-10, .cls-11, .cls-12 {
        stroke-width: 0px;
      }

      .cls-2 {
        fill: url(#radial-gradient-8);
      }

      .cls-3 {
        fill: url(#linear-gradient-2);
      }

      .cls-4 {
        fill: url(#radial-gradient-2);
      }

      .cls-5 {
        fill: url(#radial-gradient-7);
      }

      .cls-6 {
        fill: url(#radial-gradient-5);
      }

      .cls-7 {
        fill: url(#radial-gradient);
      }

      .cls-8 {
        fill: url(#radial-gradient-10);
      }

      .cls-9 {
        fill: url(#radial-gradient-6);
      }

      .cls-10 {
        fill: url(#radial-gradient-9);
      }

      .cls-11 {
        fill: url(#radial-gradient-3);
      }

      .cls-12 {
        fill: url(#radial-gradient-4);
      }
    </style>
    <linearGradient id="linear-gradient" x1="369.25" y1="971.7" x2="107.01" y2="718.69" gradientTransform="translate(-79.48 1003.78) scale(.98 -.98)" gradientUnits="userSpaceOnUse">
      <stop offset=".05" stop-color="#fff44f"/>
      <stop offset=".11" stop-color="#ffe847"/>
      <stop offset=".23" stop-color="#ffc830"/>
      <stop offset=".37" stop-color="#ff980e"/>
      <stop offset=".4" stop-color="#ff8b16"/>
      <stop offset=".46" stop-color="#ff672a"/>
      <stop offset=".53" stop-color="#ff3647"/>
      <stop offset=".7" stop-color="#e31587"/>
    </linearGradient>
    <radialGradient id="radial-gradient" cx="-7616.15" cy="9509.45" fx="-7616.15" fy="9509.45" r="329.3" gradientTransform="translate(7752.14 9374.22) scale(.98 -.98)" gradientUnits="userSpaceOnUse">
      <stop offset=".13" stop-color="#ffbd4f"/>
      <stop offset=".19" stop-color="#ffac31"/>
      <stop offset=".25" stop-color="#ff9d17"/>
      <stop offset=".28" stop-color="#ff980e"/>
      <stop offset=".4" stop-color="#ff563b"/>
      <stop offset=".47" stop-color="#ff3750"/>
      <stop offset=".71" stop-color="#f5156c"/>
      <stop offset=".78" stop-color="#eb0878"/>
      <stop offset=".86" stop-color="#e50080"/>
    </radialGradient>
    <radialGradient id="radial-gradient-2" cx="-7738.42" cy="9374.95" fx="-7738.42" fy="9374.95" r="329.3" gradientTransform="translate(7752.14 9374.22) scale(.98 -.98)" gradientUnits="userSpaceOnUse">
      <stop offset=".3" stop-color="#960e18"/>
      <stop offset=".35" stop-color="#b11927" stop-opacity=".74"/>
      <stop offset=".43" stop-color="#db293d" stop-opacity=".34"/>
      <stop offset=".5" stop-color="#f5334b" stop-opacity=".09"/>
      <stop offset=".53" stop-color="#ff3750" stop-opacity="0"/>
    </radialGradient>
    <radialGradient id="radial-gradient-3" cx="-7697.66" cy="9582.81" fx="-7697.66" fy="9582.81" r="238.54" gradientTransform="translate(7752.14 9374.22) scale(.98 -.98)" gradientUnits="userSpaceOnUse">
      <stop offset=".13" stop-color="#fff44f"/>
      <stop offset=".25" stop-color="#ffdc3e"/>
      <stop offset=".51" stop-color="#ff9d12"/>
      <stop offset=".53" stop-color="#ff980e"/>
    </radialGradient>
    <radialGradient id="radial-gradient-4" cx="-7775.1" cy="9289.37" fx="-7775.1" fy="9289.37" r="156.79" gradientTransform="translate(7752.14 9374.22) scale(.98 -.98)" gradientUnits="userSpaceOnUse">
      <stop offset=".35" stop-color="#3a8ee6"/>
      <stop offset=".47" stop-color="#5c79f0"/>
      <stop offset=".67" stop-color="#9059ff"/>
      <stop offset="1" stop-color="#c139e6"/>
    </radialGradient>
    <radialGradient id="radial-gradient-5" cx="-7885.96" cy="8508.15" fx="-7885.96" fy="8508.15" r="83.14" gradientTransform="translate(9993.42 7828.43) rotate(-13.59) scale(.98 -1.15)" gradientUnits="userSpaceOnUse">
      <stop offset=".21" stop-color="#9059ff" stop-opacity="0"/>
      <stop offset=".28" stop-color="#8c4ff3" stop-opacity=".06"/>
      <stop offset=".75" stop-color="#7716a8" stop-opacity=".45"/>
      <stop offset=".97" stop-color="#6e008b" stop-opacity=".6"/>
    </radialGradient>
    <radialGradient id="radial-gradient-6" cx="-7742.49" cy="9521.67" fx="-7742.49" fy="9521.67" r="112.81" gradientTransform="translate(7752.14 9374.22) scale(.98 -.98)" gradientUnits="userSpaceOnUse">
      <stop offset="0" stop-color="#ffe226"/>
      <stop offset=".12" stop-color="#ffdb27"/>
      <stop offset=".29" stop-color="#ffc82a"/>
      <stop offset=".5" stop-color="#ffa930"/>
      <stop offset=".73" stop-color="#ff7e37"/>
      <stop offset=".79" stop-color="#ff7139"/>
    </radialGradient>
    <radialGradient id="radial-gradient-7" cx="-7652.83" cy="9595.03" fx="-7652.83" fy="9595.03" r="481.32" gradientTransform="translate(7752.14 9374.22) scale(.98 -.98)" gradientUnits="userSpaceOnUse">
      <stop offset=".11" stop-color="#fff44f"/>
      <stop offset=".46" stop-color="#ff980e"/>
      <stop offset=".62" stop-color="#ff5634"/>
      <stop offset=".72" stop-color="#ff3647"/>
      <stop offset=".9" stop-color="#e31587"/>
    </radialGradient>
    <radialGradient id="radial-gradient-8" cx="-11810.04" cy="16557.69" fx="-11810.04" fy="16557.69" r="352.54" gradientTransform="translate(-9201.77 12639.44) rotate(83.98) scale(.98 -.64)" gradientUnits="userSpaceOnUse">
      <stop offset="0" stop-color="#fff44f"/>
      <stop offset=".06" stop-color="#ffe847"/>
      <stop offset=".17" stop-color="#ffc830"/>
      <stop offset=".3" stop-color="#ff980e"/>
      <stop offset=".36" stop-color="#ff8b16"/>
      <stop offset=".46" stop-color="#ff672a"/>
      <stop offset=".57" stop-color="#ff3647"/>
      <stop offset=".74" stop-color="#e31587"/>
    </radialGradient>
    <radialGradient id="radial-gradient-9" cx="-7742.49" cy="9480.92" fx="-7742.49" fy="9480.92" r="300.45" gradientTransform="translate(7752.14 9374.22) scale(.98 -.98)" gradientUnits="userSpaceOnUse">
      <stop offset=".14" stop-color="#fff44f"/>
      <stop offset=".48" stop-color="#ff980e"/>
      <stop offset=".59" stop-color="#ff5634"/>
      <stop offset=".66" stop-color="#ff3647"/>
      <stop offset=".9" stop-color="#e31587"/>
    </radialGradient>
    <radialGradient id="radial-gradient-10" cx="-7665.06" cy="9464.62" fx="-7665.06" fy="9464.62" r="328.86" gradientTransform="translate(7752.14 9374.22) scale(.98 -.98)" gradientUnits="userSpaceOnUse">
      <stop offset=".09" stop-color="#fff44f"/>
      <stop offset=".23" stop-color="#ffe141"/>
      <stop offset=".51" stop-color="#ffaf1e"/>
      <stop offset=".63" stop-color="#ff980e"/>
    </radialGradient>
    <linearGradient id="linear-gradient-2" x1="366.09" y1="973.02" x2="142.99" y2="749.88" gradientTransform="translate(-79.48 1003.78) scale(.98 -.98)" gradientUnits="userSpaceOnUse">
      <stop offset=".17" stop-color="#fff44f" stop-opacity=".8"/>
      <stop offset=".27" stop-color="#fff44f" stop-opacity=".63"/>
      <stop offset=".49" stop-color="#fff44f" stop-opacity=".22"/>
      <stop offset=".6" stop-color="#fff44f" stop-opacity="0"/>
    </linearGradient>
  </defs>
  <path class="cls-1" d="M303.7,107.45c-6.74-16.22-20.41-33.73-31.12-39.26,7.63,14.78,12.93,30.66,15.71,47.07l.03.26c-17.54-43.7-47.27-61.35-71.56-99.73-1.23-1.94-2.46-3.89-3.65-5.94-.68-1.17-1.23-2.23-1.71-3.2-1.01-1.95-1.78-4.01-2.31-6.14,0-.2-.15-.38-.35-.4-.1-.03-.2-.03-.29,0-.02,0-.05.04-.08.04s-.08.04-.11.06l.06-.1c-38.96,22.81-52.19,65.03-53.39,86.17-15.56,1.07-30.45,6.8-42.7,16.45-1.28-1.08-2.61-2.1-4-3.03-3.53-12.37-3.68-25.46-.44-37.91-14.31,6.93-27.02,16.76-37.34,28.86h-.07c-6.15-7.79-5.72-33.49-5.36-38.85-1.82.73-3.55,1.65-5.18,2.75-5.43,3.87-10.5,8.22-15.16,12.99-5.31,5.38-10.16,11.2-14.5,17.4v.02-.03c-9.97,14.13-17.04,30.1-20.81,46.99l-.21,1.02c-.29,1.36-1.34,8.2-1.52,9.69,0,.12-.02.22-.04.34-1.36,7.06-2.2,14.2-2.52,21.38v.8c.15,85.67,69.72,155,155.4,154.85,75.34-.13,139.69-54.38,152.57-128.62.26-2,.47-3.98.7-6,3.19-26.41-.26-53.19-10.06-77.92l.02.02ZM124.92,228.87c.72.35,1.4.72,2.15,1.06l.11.07c-.75-.36-1.5-.74-2.26-1.12ZM288.32,115.56v-.15l.03.16-.03-.02Z"/>
  <path class="cls-7" d="M303.7,107.45c-6.74-16.22-20.41-33.73-31.12-39.26,7.63,14.78,12.93,30.66,15.71,47.07v.15l.03.16c11.96,34.21,10.23,71.73-4.83,104.7-17.78,38.14-60.79,77.24-128.15,75.32-72.76-2.06-136.87-56.07-148.84-126.79-2.18-11.15,0-16.81,1.1-25.87-1.5,7.04-2.33,14.21-2.49,21.4v.8c.15,85.67,69.72,155,155.4,154.85,75.34-.13,139.69-54.38,152.57-128.62.26-2,.47-3.98.7-6,3.19-26.41-.26-53.19-10.06-77.92l-.02.02Z"/>
  <path class="cls-4" d="M303.7,107.45c-6.74-16.22-20.41-33.73-31.12-39.26,7.63,14.78,12.93,30.66,15.71,47.07v.15l.03.16c11.96,34.21,10.23,71.73-4.83,104.7-17.78,38.14-60.79,77.24-128.15,75.32-72.76-2.06-136.87-56.07-148.84-126.79-2.18-11.15,0-16.81,1.1-25.87-1.5,7.04-2.33,14.21-2.49,21.4v.8c.15,85.67,69.72,155,155.4,154.85,75.34-.13,139.69-54.38,152.57-128.62.26-2,.47-3.98.7-6,3.19-26.41-.26-53.19-10.06-77.92l-.02.02Z"/>
  <path class="cls-11" d="M228.3,125.66c.34.24.65.47.96.71-3.9-6.91-8.75-13.23-14.41-18.79C166.63,59.35,202.22,3.04,208.22.16l.06-.09c-38.96,22.81-52.19,65.03-53.39,86.17,1.81-.12,3.6-.28,5.45-.28,28.14.05,54.08,15.21,67.96,39.69h0Z"/>
  <path class="cls-12" d="M160.42,135.3c-.26,3.86-13.89,17.17-18.65,17.17-44.1,0-51.27,26.68-51.27,26.68,1.95,22.47,17.61,40.98,36.54,50.75.86.45,1.74.85,2.62,1.25,1.52.67,3.04,1.29,4.55,1.86,6.5,2.3,13.3,3.61,20.18,3.89,77.32,3.63,92.29-92.45,36.5-120.34,13.16-1.71,26.49,1.52,37.4,9.08-13.87-24.48-39.82-39.63-67.96-39.69-1.84,0-3.64.15-5.45.28-15.56,1.07-30.45,6.8-42.7,16.45,2.37,2,5.03,4.67,10.66,10.22,10.53,10.37,37.52,21.11,37.58,22.37v.03Z"/>
  <path class="cls-6" d="M160.42,135.3c-.26,3.86-13.89,17.17-18.65,17.17-44.1,0-51.27,26.68-51.27,26.68,1.95,22.47,17.61,40.98,36.54,50.75.86.45,1.74.85,2.62,1.25,1.52.67,3.04,1.29,4.55,1.86,6.5,2.3,13.3,3.61,20.18,3.89,77.32,3.63,92.29-92.45,36.5-120.34,13.16-1.71,26.49,1.52,37.4,9.08-13.87-24.48-39.82-39.63-67.96-39.69-1.84,0-3.64.15-5.45.28-15.56,1.07-30.45,6.8-42.7,16.45,2.37,2,5.03,4.67,10.66,10.22,10.53,10.37,37.52,21.11,37.58,22.37v.03Z"/>
  <path class="cls-9" d="M104.95,97.56c1.26.8,2.29,1.5,3.2,2.13-3.53-12.37-3.68-25.46-.44-37.91-14.31,6.93-27.02,16.76-37.34,28.86.76-.02,23.26-.42,34.57,6.93Z"/>
  <path class="cls-5" d="M6.47,168.8c11.97,70.72,76.08,124.75,148.84,126.79,67.36,1.91,110.38-37.2,128.15-75.32,15.05-32.97,16.78-70.48,4.83-104.7v-.15c0-.12-.02-.18,0-.15l.03.26c5.5,35.93-12.77,70.72-41.34,94.29l-.09.2c-55.67,45.34-108.94,27.35-119.7,20.01-.75-.36-1.5-.74-2.26-1.12-32.45-15.51-45.86-45.06-42.98-70.44-15.74.23-30.14-8.83-36.74-23.11,17.32-10.61,38.91-11.48,57.03-2.29,18.37,8.34,39.27,9.16,58.23,2.29-.06-1.26-27.05-12.01-37.58-22.37-5.62-5.54-8.29-8.21-10.66-10.22-1.28-1.08-2.61-2.1-4-3.03-.92-.63-1.96-1.31-3.2-2.13-11.31-7.36-33.81-6.95-34.56-6.93h-.07c-6.15-7.79-5.72-33.49-5.36-38.85-1.82.73-3.55,1.65-5.18,2.75-5.43,3.87-10.5,8.22-15.16,12.99-5.33,5.37-10.2,11.18-14.56,17.36v.02-.03c-9.97,14.13-17.04,30.1-20.81,46.98-.08.32-5.59,24.41-2.87,36.9h.03Z"/>
  <path class="cls-2" d="M214.85,107.57c5.66,5.56,10.51,11.89,14.41,18.81.85.64,1.65,1.28,2.33,1.91,35.17,32.42,16.74,78.24,15.37,81.48,28.57-23.54,46.82-58.35,41.34-94.29-17.55-43.74-47.31-61.39-71.56-99.77-1.23-1.94-2.46-3.89-3.65-5.94-.68-1.17-1.23-2.23-1.71-3.2-1.01-1.95-1.78-4.01-2.31-6.14,0-.2-.15-.38-.35-.4-.1-.03-.2-.03-.29,0-.02,0-.05.04-.08.04s-.08.04-.11.06c-6,2.85-41.58,59.19,6.64,107.38l-.02.07Z"/>
  <path class="cls-10" d="M231.58,128.3c-.68-.62-1.47-1.26-2.33-1.91-.32-.24-.63-.47-.96-.71-10.91-7.56-24.24-10.79-37.4-9.08,55.79,27.89,40.82,123.95-36.5,120.34-6.88-.28-13.69-1.6-20.18-3.89-1.52-.57-3.04-1.19-4.55-1.86-.88-.4-1.75-.8-2.62-1.25l.11.07c10.78,7.36,64.03,25.34,119.7-20.01l.09-.2c1.39-3.24,19.81-49.07-15.37-81.48v-.02Z"/>
  <path class="cls-8" d="M90.5,179.13s7.16-26.68,51.27-26.68c4.77,0,18.41-13.31,18.65-17.17-18.96,6.87-39.86,6.05-58.23-2.29-18.12-9.19-39.71-8.32-57.03,2.29,6.61,14.29,21,23.34,36.74,23.11-2.87,25.36,10.53,54.91,42.98,70.44.72.35,1.4.72,2.15,1.06-18.94-9.79-34.58-28.29-36.54-50.75h0Z"/>
  <path class="cls-3" d="M303.7,107.45c-6.74-16.22-20.41-33.73-31.12-39.26,7.63,14.78,12.93,30.66,15.71,47.07l.03.26c-17.54-43.7-47.27-61.35-71.56-99.73-1.23-1.94-2.46-3.89-3.65-5.94-.68-1.17-1.23-2.23-1.71-3.2-1.01-1.95-1.78-4.01-2.31-6.14,0-.2-.15-.38-.35-.4-.1-.03-.2-.03-.29,0-.02,0-.05.04-.08.04s-.08.04-.11.06l.06-.1c-38.96,22.81-52.19,65.03-53.39,86.17,1.81-.12,3.6-.28,5.45-.28,28.14.05,54.08,15.21,67.96,39.69-10.91-7.56-24.24-10.79-37.4-9.08,55.79,27.89,40.82,123.95-36.5,120.34-6.88-.28-13.69-1.6-20.18-3.89-1.52-.57-3.04-1.19-4.55-1.86-.88-.4-1.75-.8-2.62-1.25l.11.07c-.75-.36-1.5-.74-2.26-1.12.72.35,1.4.72,2.15,1.06-18.94-9.79-34.58-28.3-36.54-50.75,0,0,7.16-26.68,51.27-26.68,4.77,0,18.41-13.31,18.65-17.17-.06-1.26-27.05-12.01-37.58-22.37-5.62-5.54-8.29-8.21-10.66-10.22-1.28-1.08-2.61-2.1-4-3.03-3.53-12.37-3.68-25.46-.44-37.91-14.31,6.93-27.02,16.76-37.34,28.86h-.07c-6.15-7.79-5.72-33.49-5.36-38.85-1.82.73-3.55,1.65-5.18,2.75-5.43,3.87-10.5,8.22-15.16,12.99-5.31,5.38-10.16,11.2-14.5,17.4v.02-.03c-9.97,14.13-17.04,30.1-20.81,46.98l-.21,1.02c-.29,1.36-1.6,8.3-1.79,9.79-1.2,7.16-1.96,14.38-2.29,21.62v.8c.15,85.67,69.72,155,155.4,154.85,75.34-.13,139.69-54.38,152.57-128.62.26-2,.47-3.98.7-6,3.19-26.41-.26-53.19-10.06-77.92h0ZM288.31,115.42l.03.16-.03-.16Z"/>
</svg>