<?xml version="1.0" encoding="UTF-8"?>
<svg id="Layer_1" data-name="Layer 1" xmlns="http://www.w3.org/2000/svg" viewBox="0 0 320 320">
  <defs>
    <style>
      .cls-1 {
        fill: #fff;
        stroke-width: 0px;
      }
    </style>
  </defs>
  <path class="cls-1" d="M5.26,240.51h25.83v-109.97H5.26v109.97ZM18.12,116.12c8.09,0,14.42-6.22,14.42-14.01s-6.33-14.11-14.42-14.11-14.32,6.22-14.32,14.11,6.33,14.01,14.32,14.01h0ZM117.1,88.31c-43.68,0-71.07,29.78-71.07,77.4s27.39,77.29,71.07,77.29,70.96-29.67,70.96-77.29-27.39-77.4-70.96-77.4ZM117.1,111.14c26.66,0,43.68,21.16,43.68,54.57s-17.01,54.47-43.68,54.47-43.68-21.16-43.68-54.47,16.91-54.57,43.68-54.57ZM198.96,198.39c1.14,27.6,23.76,44.61,58.2,44.61,36.21,0,59.03-17.84,59.03-46.27,0-22.31-12.86-34.86-43.26-41.81l-17.22-3.94c-18.36-4.36-25.94-10.17-25.94-20.13,0-12.45,11.41-20.75,28.32-20.75s28.84,8.4,30.09,22.41h25.52c-.62-26.35-22.41-44.2-55.4-44.2s-55.71,17.95-55.71,44.51c0,21.37,13.07,34.65,40.67,40.98l19.4,4.57c18.88,4.46,26.56,10.69,26.56,21.48,0,12.45-12.55,21.37-30.6,21.37s-32.06-9.03-33.72-22.82h-25.94Z"/>
</svg>