<?xml version="1.0" encoding="UTF-8"?>
<svg id="Layer_1" data-name="Layer 1" xmlns="http://www.w3.org/2000/svg" viewBox="0 0 320 320">
  <defs>
    <style>
      .cls-1 {
        fill: #fdfdfd;
      }

      .cls-1, .cls-2, .cls-3 {
        stroke-width: 0px;
      }

      .cls-2 {
        fill: #fff;
      }

      .cls-3 {
        fill: #030303;
      }
    </style>
  </defs>
  <path class="cls-2" d="M216.86,320c-7.23-2.15-12.38-6.6-16.51-13-2.35-3.63-7.36-3.54-11.51-3.62-16.24-.32-32.49-.51-48.69,1.12-7.68.77-14.2,4.35-20.2,9.05-6.66,5.21-14.06,6.88-22.25,4.16-5.22-1.74-10.49-3.31-15.66-5.17-13.35-4.82-27.2-7.53-41.12-10.01-3.27-.58-6.51-1.33-9.63-2.51-6.07-2.29-8.18-6.17-6.64-12.5.54-2.21,1.2-4.44,2.16-6.49,2.81-5.97,2.84-11.97,1-18.2-.94-3.17-1.72-6.43-1.77-9.8-.06-4.71,1.45-6.75,6.04-7.56,2.97-.53,5.97-.96,8.98-1.09,4.83-.22,8.78-2.25,12.39-5.25,3.33-2.77,4.88-6.33,4.68-11.35,3.85,10.67-2.46,19.96-13.54,20.89-3.1.26-6.24,0-9.36.06-4.75.08-6.65,2.35-5.75,7.01.63,3.29,2.07,6.31,3.55,9.29,2.47,4.98,2.6,9.94.18,14.99-1.17,2.43-2.21,4.93-3.15,7.45-1.48,3.96-.58,6.05,3.36,7.65,4.26,1.73,8.82,2.43,13.3,3.23,16.7,2.99,32.89,7.95,49.21,12.43,5.73,1.57,11.49,1.68,17.12-.65,6.36-2.63,9.73-7.86,9.24-14.69-.59-8.27-3.49-15.81-7.87-22.74-9.34-14.76-18.6-29.59-29.82-43.05-3.02-3.62-6.42-6.85-10.79-8.81-3.09-1.38-6.25-1.63-9.24.33-2.09,1.37-2.96.55-3.35-1.6-1.3-6.99-.79-13.94,2.85-19.98,7.16-11.87,10.87-25.11,16.01-37.78,3.18-7.83,7.18-15.13,12.53-21.79,7.1-8.83,13.75-18.02,19.32-27.94,2.29-4.08,3.25-8.17,2.8-13.04-1.74-19.09-2.66-38.25-2.13-57.41.27-9.5,2.02-18.89,8.62-26.46,7.06-8.09,15.53-13.73,26.54-14.78,13.04-1.25,25.58.48,37.12,6.91,10.18,5.67,16.23,14.88,20.8,25.3,4.42,10.08,4.8,20.65,5,31.45.33,17.9,4.32,35,13.49,50.64,3.17,5.4,6.69,10.56,11.01,15.1,13.04,13.69,21.36,30.05,27.33,47.77,3.77,11.18,6.8,22.49,6.35,34.45-.13,3.34-.59,6.62-1.66,9.8-.85,2.53-2.06,4.66-4.76,5.78-2.29.95-3.54,3.14-5.01,5.02-2.5,3.19-4.85,6.45-8.3,8.81-4.61,3.17-9.54,4.21-15.06,3.74-4.96-.42-8.28-2.96-10.74-7-1.68-2.75-2.65-5.88-4.66-8.44-3.4-4.33-6.94-3.95-9.15,1.12-2.59,5.96-2.77,12.24-1.1,18.36,3.29,12.02,2.92,24.07,1.29,36.21-.6,4.44-1.18,8.92-.15,13.35,2.63,11.21,13.46,15.86,24.57,10.57,1.96-.93,3.99-1.96,5.56-3.4,11.84-10.82,25.97-17.38,40.99-22.36,3.16-1.05,6.12-2.59,8.73-4.72,4.02-3.28,4.07-6.08.2-9.5-2.54-2.25-5.61-3.52-8.7-4.75-10.5-4.18-16.33-16.49-12.92-27.33.33-1.06.56-2.19,1.9-2.99.47,4.56,1.18,8.89,2.58,13.1,1.9,5.69,5.54,9.93,10.49,13.12,3.14,2.02,6.58,3.58,9.37,6.14,4.7,4.3,4.72,9.4.03,13.73-4.48,4.14-9.71,7.19-15.23,9.62-14.26,6.27-26.75,15.1-38.1,25.67-2.57,2.39-5.69,3.32-9.05,3.74-.49.06-1.06-.09-1.24.6h-11.87ZM218.43,142.83c.15.19.3.39.45.58,5.01,7.44,9.13,15.35,12.41,23.69,4.56,11.64,6.88,23.54,3.75,35.98-1.43,5.67-4.76,8.24-10.51,8.18-3.34-.04-5.09-1.38-5.65-4.61-.41-2.35-.78-4.7-.88-7.11-.43-10.39-.72-20.81-3.67-30.92-2.43-8.32-5.02-16.54-11.43-22.86-.72-.71-.9-1.59-1.12-2.51-2.77-11.49-6.69-22.42-14.09-31.95-3.12-4.01-4.18-9-2.71-14.21.62-2.2.98-4.47,1.45-6.7,1.04-4.96-.15-7.29-5.05-8.66-4.43-1.24-8.6-3.03-12.76-4.91-6.07-2.75-7.28-4.97-6.11-11.58.2-1.12.57-2.21.93-3.3,1.01-3.11,2.91-5.31,6.34-5.65,3.69-.36,6.84.66,8.73,4.1,2.2,4.01,3.03,8.14.96,12.52-.74,1.58-1.2,3.24,1.01,4.17,2.61,1.1,5.96-.65,6.41-3.48,1.06-6.62.5-13.09-2.32-19.23-3.91-8.5-13.55-11.34-21.53-6.43-6.61,4.07-7.48,10.55-7.2,17.45.08,2.03.65,4.05.05,6.3-3.22-1.78-6.64-2-10.06-1.61-3.06.35-4.01-.75-3.94-3.77.13-5.49-.84-10.82-4.15-15.39-3.97-5.46-10.9-4.91-13.9,1.09-3.41,6.84-3.92,13.93-1.28,21.16.57,1.55,1.28,3.06,2.37,4.36.64.77,1.37.9,2.21.49,1.06-.52,1.89-1.31,2.24-2.46.19-.61-.36-.81-.82-1.09-4.47-2.74-6.08-8.79-3.87-13.87,1.15-2.64,3.11-3.67,5.86-3.81,2.84-.14,4.46,1.38,5.58,3.68,1.05,2.17,1.7,4.5,1.69,6.91,0,1.5.45,3.43-.85,4.43-4.11,3.16-6.81,7.92-11.73,10.16-2.32,1.06-3.58,3.11-4.34,5.45-.46,1.4-.27,2.75,1.11,3.56,3.03,1.78,5.28,4.35,7.48,7,1.18,1.41,2.74,2.21,4.5,2.63,5.06,1.21,10.22,1.27,15.16-.06,9.9-2.65,20.64-3.36,28.38-11.45.9-.94,2.13-.81,3.07.12.96.96.84,2.03.08,3.1-.71,1.01-1.81,1.35-2.87,1.77-6.26,2.51-12.6,4.84-18.76,7.58-8.22,3.66-16.66,5-25.55,3.5-.55-.09-1.21-.37-1.71.22-.22.9.46,1.35.94,1.85,5.92,6.28,13.01,6.55,20.68,4.06,7.28-2.36,13.57-6.72,20.4-9.97,1.72-.82,3.99-2.23,5.26.09,1.39,2.56-1.34,3.41-2.97,4.17-7.78,3.63-14.66,8.66-21.61,13.59-2.2,1.56-4.53,2.96-6.91,4.23-4.75,2.54-8.36,1.95-12.13-1.9-1.16-1.18-2.21-2.49-3.24-3.79-2.5-3.19-4.95-6.43-7.45-9.63-.43-.55-.81-1.39-1.67-1.17-.98.25-.55,1.21-.62,1.86-.44,4.52-1.93,8.67-4.08,12.65-1.92,3.56-3.89,7.12-5.5,10.83-1.87,4.32-3.48,8.96-1.8,13.59,1.16,3.2.56,4.95-1.63,7.49-5.63,6.52-8.61,14.62-11.83,22.5-3.13,7.67-5,15.59-4.65,23.99.16,3.84-.2,7.7-.4,11.55-.1,2-.37,4.29-2.41,5.01-2.06.73-3.3-1.25-4.46-2.67-5.09-6.25-5.71-13.63-5.24-21.25.15-2.37.52-4.73.79-7.09-.85.29-1.11.7-1.37,1.11-5.37,8.25-.89,28.28,7.23,34.98,12.68,10.46,25.11,21.24,37.81,31.7,3.42,2.82,4.63,6.42,3.71,10.58-.91,4.14-3.53,6.98-7.71,8.22-.75.22-1.65.13-2.39,1.1,6.27,8.64,12.38,17.48,10.97,29.34,3.89-2.09,5.14-4.56,4.52-8.24-.75-4.42-2.96-8.15-5.62-11.67-1.68-2.22-1.22-3.42,1.48-4.11,1.76-.45,2.98.44,4.14,1.55,2.38,2.27,5.21,3.73,8.36,4.62,9.33,2.62,18.6,1.3,27.82-.48,10.83-2.09,20.06-6.77,25.74-16.82.3-.53.76-.99,1.18-1.45.71-.77,1.45-1.59,2.63-1.39,1.4.24,1.74,1.52,1.92,2.58.53,3.09.46,6.21-.04,9.32-.9,5.57-2.92,10.82-4.39,16.23-.39,1.46-.54,2.9-.29,4.31.28,1.61,1.52,2.43,3.13,2.57,1.95.17,1.18-1.58,1.56-2.44.41-.92.41-2.03.62-3.04,2.86-13.89,5.26-27.75,2.23-42.03-1.24-5.87-1.43-12-.12-18,1.43-6.56,4.41-9.44,10.83-10.13,1.66-.18,1.75-1.06,1.96-2.18.73-3.96,3.24-6.36,6.82-7.86,6.11-2.57,12.19-2.03,18.28.05.85.29,1.72,1.3,2.82.02-1.75-2.1-4.14-3.14-6.45-4.18-1.43-.64-1.69-1.29-1.27-2.82.84-3.1,1.44-6.28,1.97-9.45,1.42-8.68-1.02-16.97-2.84-25.27-2.52-11.48-8.43-21.12-16.92-29.19-.23-.19-.45-.38-.68-.57-.22-.16-.57-.49-.64-.44-.53.38-.07.66.16.95ZM209.39,104.66c.04-1.78-.72-2.93-2.48-3.48-2.51-.78-4.81-1.89-6.46-4.1-.55-.73-1.15-2.21-2.25-1.59-1.24.69-1.42,2.21-.99,3.63,1.16,3.77,3.87,6.33,6.86,8.63.97.74,2.17,1.41,3.46.63,1.37-.83,1.9-2.14,1.86-3.72ZM187.02,23.92c-.12-.24-.18-.61-.39-.77-2.16-1.58-4.08-3.54-6.57-4.58-1.94-.81-3.12.42-3.06,2.21.07,2.29-.28,4.29-1.74,6.08-.5.61-.55,1.35,0,2,.65.77,1.32.39,1.88-.11,2.31-2.08,4.93-3.32,8.11-3.36.74,0,1.66-.34,1.79-1.46ZM89.55,161.69c.28-.13.57-.24.84-.38,2.01-1.05,4.62-5.76,4.33-7.9-.05-.36-.28-.8-.57-.99-.56-.37-1.04.03-1.21.53-.91,2.65-2.19,5.1-3.84,7.37-.43.59-.47,1.15.44,1.38ZM171.46,60.32c2.42,1.13,3.84,2.77,4.15,5.22.07.53.22,1.09.88.99.34-.05.82-.41.89-.71.41-1.87-.37-3.45-1.56-4.78-1.03-1.15-2.19-2.31-4.35-.72ZM134.74,66.43c-.25-1.97-.54-3.9-2.04-5.37-.5-.48-1.13-.64-1.67-.26-.63.44-.58,1.24.01,1.54,1.9.98,1.51,2.65,1.49,4.25-.01.94,0,2.2,1.11,2.21,1.59.01.67-1.59,1.1-2.37Z"/>
  <path class="cls-1" d="M89.55,161.69c-.92-.22-.87-.79-.44-1.38,1.65-2.26,2.93-4.72,3.84-7.37.17-.5.64-.9,1.21-.53.29.19.52.63.57.99.29,2.14-2.32,6.86-4.33,7.9-.27.14-.56.25-.84.38Z"/>
  <path class="cls-1" d="M171.46,60.32c2.16-1.59,3.33-.43,4.35.72,1.19,1.33,1.98,2.91,1.56,4.78-.07.3-.55.66-.89.71-.66.11-.81-.46-.88-.99-.31-2.45-1.73-4.09-4.15-5.22Z"/>
  <path class="cls-1" d="M134.74,66.43c-.43.79.49,2.38-1.1,2.37-1.1,0-1.13-1.27-1.11-2.21.02-1.59.41-3.27-1.49-4.25-.59-.31-.64-1.11-.01-1.54.55-.38,1.18-.22,1.67.26,1.51,1.47,1.79,3.39,2.04,5.37Z"/>
  <path class="cls-1" d="M218.43,142.83c-.23-.3-.69-.58-.16-.95.07-.05.42.29.64.44-.16.17-.32.34-.48.51Z"/>
  <path class="cls-1" d="M218.88,143.41c-.15-.19-.3-.39-.45-.58.16-.17.32-.34.48-.51.23.19.45.38.68.57-.23.17-.47.35-.7.52Z"/>
  <path class="cls-3" d="M153.26,73.64c1.5-.68,2.87-.85,3.84.63.31.48.37,1.09-.23,1.27-1.73.51-2.24-1.44-3.6-1.9Z"/>
  <path class="cls-3" d="M139.55,73.81c-1.15,1.16-1.29,2.76-2.88,2.96-.52.07-.6-.55-.53-.91.28-1.57,1.27-2.22,3.41-2.05Z"/>
</svg>