<?xml version="1.0" encoding="UTF-8"?>
<svg id="Layer_1" data-name="Layer 1" xmlns="http://www.w3.org/2000/svg" viewBox="0 0 320 320">
  <defs>
    <style>
      .cls-1 {
        fill: #ddd;
        stroke-width: 0px;
      }
    </style>
  </defs>
  <path id="path2" class="cls-1" d="M148.71,194.26c0,26.92-14.02,43.86-36.42,43.86s-36.42-17.04-36.42-43.86,14.02-43.95,36.42-43.95,36.42,16.94,36.42,43.95ZM179.95,99.29l-9.79.66c-5.55.38-8,2.35-8,5.93,0,3.76,3.11,5.84,7.44,5.84,5.93,0,10.35-3.86,10.35-9.04v-3.39ZM320,160c0,89.32-70.68,160-160,160S0,249.32,0,160,70.68,0,160,0s160,70.68,160,160ZM197.08,97.32c0,12.99,7.15,20.89,18.82,20.89,9.88,0,16.09-5.55,17.13-13.46h-7.72c-1.04,4.33-4.42,6.68-9.41,6.68-6.59,0-10.64-5.36-10.64-14.12s4.05-13.84,10.64-13.84c5.27,0,8.56,3.01,9.41,6.87h7.72c-1.04-7.72-7.06-13.55-17.13-13.55-11.67-.09-18.82,7.81-18.82,20.52ZM89.51,77.55v39.91h7.91v-24.47c0-5.18,3.67-9.32,8.47-9.32s7.72,2.82,7.72,7.34v26.45h7.72v-25.22c0-4.8,3.29-8.56,8.47-8.56s7.72,2.64,7.72,8.19v25.6h7.91v-27.58c0-8.28-4.71-13.18-12.8-13.18-5.55,0-10.16,2.82-12.14,7.15h-.66c-1.79-4.33-5.55-7.15-11.01-7.15s-9.41,2.64-11.11,7.15h-.56v-6.4l-7.62.09ZM162.73,194.26c0-34.73-19.39-56.56-50.45-56.56s-50.45,21.84-50.45,56.56,19.39,56.47,50.45,56.47,50.45-21.84,50.45-56.47ZM167.62,118.12c5.27,0,9.6-2.26,12.05-6.31h.66v5.65h7.62v-27.29c0-8.38-5.65-13.36-15.72-13.36-9.13,0-15.53,4.42-16.38,11.11h7.62c.85-2.92,3.95-4.52,8.38-4.52,5.36,0,8.19,2.45,8.19,6.87v3.48l-10.82.66c-9.51.56-14.87,4.71-14.87,11.95-.09,7.15,5.55,11.76,13.27,11.76ZM253.93,217.79c0-15.53-9.04-24.56-31.81-29.55l-12.14-2.64c-14.96-3.29-20.8-9.22-20.8-17.79,0-11.11,10.54-17.79,24.19-17.79s23.72,7.34,24.94,19.39h13.65c-.66-18.54-16.38-31.62-38.21-31.62s-38.59,12.71-38.59,30.68c0,15.53,9.51,25.51,31.44,30.31l12.14,2.64c15.15,3.29,21.27,9.41,21.27,18.54,0,10.73-10.82,18.54-25.6,18.54-15.72,0-26.64-7.15-28.24-18.92h-13.65c1.32,18.92,17.22,31.15,41.13,31.15s40.28-12.71,40.28-32.94Z"/>
</svg>