<?xml version="1.0" encoding="UTF-8"?>
<svg id="Layer_1" data-name="Layer 1" xmlns="http://www.w3.org/2000/svg" xmlns:xlink="http://www.w3.org/1999/xlink" viewBox="0 0 320 320">
  <defs>
    <style>
      .cls-1 {
        opacity: .41;
      }

      .cls-1, .cls-2, .cls-3, .cls-4, .cls-5, .cls-6, .cls-7 {
        stroke-width: 0px;
      }

      .cls-1, .cls-3, .cls-7 {
        fill: #000;
        isolation: isolate;
      }

      .cls-8 {
        fill: url(#linear-gradient);
        stroke: #cdcdcd;
        stroke-linecap: round;
        stroke-linejoin: round;
        stroke-width: .26px;
      }

      .cls-2 {
        fill: #f4f2f3;
      }

      .cls-3 {
        opacity: .24;
      }

      .cls-4 {
        fill: #ff5150;
      }

      .cls-5 {
        fill: url(#radial-gradient);
      }

      .cls-6 {
        fill: #f1f1f1;
      }

      .cls-7 {
        opacity: .53;
      }
    </style>
    <linearGradient id="linear-gradient" x1="496.05" y1="643.06" x2="496.05" y2="962.67" gradientTransform="translate(-334.31 959.29) scale(1 -1)" gradientUnits="userSpaceOnUse">
      <stop offset="0" stop-color="#bdbdbd"/>
      <stop offset="1" stop-color="#fff"/>
    </linearGradient>
    <radialGradient id="radial-gradient" cx="120.06" cy="831.11" fx="120.06" fy="831.11" r="147.28" gradientTransform="translate(30.85 1036.45) scale(1.08 -1.08)" gradientUnits="userSpaceOnUse">
      <stop offset="0" stop-color="#06c2e7"/>
      <stop offset=".25" stop-color="#0db8ec"/>
      <stop offset=".5" stop-color="#12aef1"/>
      <stop offset=".75" stop-color="#1f86f9"/>
      <stop offset="1" stop-color="#107ddd"/>
    </radialGradient>
  </defs>
  <path class="cls-7" d="M313.41,172.28c0,81.58-68.68,147.72-153.4,147.72h0c-84.72,0-153.4-66.13-153.4-147.72S75.29,24.57,160.01,24.57c84.72,0,153.4,66.13,153.4,147.72Z"/>
  <path class="cls-8" d="M319.24,159.24c0,87.95-71.29,159.24-159.24,159.24h0c-87.95,0-159.24-71.29-159.24-159.24S72.05,0,160,0h0c87.95,0,159.24,71.29,159.24,159.24h0Z"/>
  <path class="cls-5" d="M306.76,159.24c0,81.05-65.71,146.76-146.76,146.76h0c-81.05,0-146.76-65.71-146.76-146.76h0C13.24,78.19,78.94,12.48,160,12.48h0c81.05,0,146.76,65.71,146.76,146.76h0Z"/>
  <path class="cls-2" d="M160,20.13c-1.19,0-2.14.95-2.14,2.14v24.68c0,1.19.95,2.14,2.14,2.14s2.14-.95,2.14-2.14v-24.68c0-1.19-.95-2.14-2.14-2.14ZM146,21.02c-.14-.02-.29-.02-.44,0-1.18.12-2.03,1.17-1.91,2.35l1.08,10.33c.12,1.18,1.17,2.03,2.35,1.91,1.18-.12,2.03-1.17,1.91-2.35l-1.08-10.33c-.11-1.03-.92-1.81-1.92-1.91h0ZM174.1,21.03c-.99.1-1.81.88-1.92,1.91l-1.09,10.32c-.12,1.18.73,2.23,1.91,2.35,1.18.12,2.23-.73,2.35-1.9l1.09-10.33c.12-1.18-.73-2.23-1.91-2.35-.15-.02-.29-.02-.43,0h0ZM131.62,23.1c-.14,0-.29.02-.43.05-1.16.25-1.9,1.38-1.65,2.54l5.11,24.15c.25,1.16,1.38,1.9,2.54,1.65,1.16-.25,1.9-1.38,1.65-2.54l-5.11-24.15c-.22-1.01-1.11-1.71-2.1-1.7h0ZM188.47,23.12c-1-.01-1.89.68-2.11,1.7l-5.13,24.14c-.25,1.16.49,2.29,1.65,2.54,1.16.25,2.29-.49,2.54-1.65l5.13-24.14c.25-1.16-.49-2.29-1.65-2.54-.14-.03-.29-.05-.43-.05h0ZM117.9,26.97c-.28-.03-.56,0-.84.1-1.13.37-1.74,1.57-1.37,2.7l3.21,9.87c.37,1.13,1.57,1.74,2.7,1.37,1.13-.37,1.74-1.57,1.37-2.7l-3.21-9.87c-.27-.85-1.02-1.4-1.85-1.47h0ZM202.12,26.98c-.83.07-1.58.63-1.85,1.47l-3.21,9.87c-.37,1.13.25,2.33,1.37,2.7,1.13.37,2.33-.25,2.7-1.37l3.21-9.87c.37-1.13-.25-2.33-1.37-2.7-.28-.09-.57-.12-.85-.1h0ZM104.33,31.94c-.28,0-.56.07-.83.19-1.08.48-1.57,1.74-1.09,2.82l10.02,22.55c.48,1.08,1.74,1.57,2.82,1.09,1.08-.48,1.57-1.74,1.09-2.82l-10.03-22.55c-.36-.81-1.16-1.29-1.99-1.27h0ZM215.84,32.01c-.83-.02-1.63.46-2,1.27l-10.06,22.54c-.48,1.08,0,2.34,1.08,2.83,1.08.48,2.34,0,2.83-1.08l10.05-22.54c.48-1.08,0-2.34-1.08-2.83-.27-.12-.55-.18-.83-.19h0ZM91.73,38.6c-.41-.03-.83.06-1.22.28-1.03.59-1.38,1.9-.78,2.92l5.19,8.99c.59,1.03,1.9,1.38,2.92.78,1.03-.59,1.38-1.9.78-2.92l-5.19-8.99c-.37-.64-1.02-1.02-1.7-1.07h0ZM228.27,38.6c-.68.05-1.33.42-1.7,1.07l-5.19,8.99c-.59,1.03-.24,2.33.78,2.92,1.03.59,2.33.24,2.92-.78l5.19-8.99c.59-1.03.24-2.33-.78-2.92-.38-.22-.81-.31-1.22-.28h0ZM79.5,46.23c-.41.02-.82.15-1.18.41-.96.7-1.17,2.03-.48,2.99l14.49,19.98c.7.96,2.03,1.17,2.99.48.96-.7,1.17-2.03.48-2.99l-14.49-19.98c-.44-.6-1.12-.91-1.8-.88h0ZM240.65,46.34c-.69-.03-1.37.28-1.81.88l-14.52,19.96c-.7.96-.49,2.29.47,2.99.96.7,2.29.49,2.99-.47l14.52-19.96c.7-.96.49-2.29-.47-2.99-.36-.26-.77-.4-1.18-.41h0ZM68.57,55.4c-.55-.03-1.1.15-1.54.55-.88.79-.95,2.14-.16,3.02l6.95,7.72c.79.88,2.14.95,3.02.16.88-.79.95-2.14.16-3.02l-6.95-7.72c-.4-.44-.93-.68-1.48-.71h0ZM251.45,55.42c-.55.03-1.08.27-1.48.71l-6.95,7.71c-.79.88-.72,2.23.16,3.02.88.79,2.23.72,3.02-.16l6.95-7.71c.79-.88.72-2.23-.16-3.02-.44-.4-1-.58-1.54-.55h0ZM58.09,65.47c-.55.03-1.08.27-1.48.71-.79.88-.72,2.23.16,3.02l18.34,16.51c.88.79,2.23.72,3.02-.16.79-.88.72-2.23-.16-3.02l-18.34-16.51c-.44-.4-1-.58-1.54-.55h0ZM261.98,65.54c-.55-.03-1.1.15-1.55.55l-18.35,16.5c-.88.79-.95,2.14-.16,3.02.79.88,2.14.95,3.02.16l18.36-16.5c.88-.79.95-2.14.16-3.02-.4-.44-.93-.68-1.48-.71h0ZM49.37,76.67c-.69-.03-1.37.28-1.81.88-.7.96-.49,2.29.47,2.99l8.4,6.1c.96.7,2.29.49,2.99-.47.7-.96.49-2.29-.47-2.99l-8.4-6.1c-.36-.26-.77-.39-1.18-.41h0ZM270.68,76.75c-.41.02-.82.15-1.18.41l-8.4,6.1c-.96.7-1.17,2.03-.48,2.99.7.96,2.03,1.17,2.99.47l8.4-6.1c.96-.7,1.17-2.03.47-2.99-.44-.6-1.12-.91-1.8-.88h0ZM41.23,88.62c-.68.05-1.33.42-1.7,1.07-.59,1.03-.24,2.33.78,2.92l21.37,12.34c1.03.59,2.33.24,2.92-.78s.24-2.33-.78-2.92l-21.37-12.34c-.38-.22-.81-.31-1.22-.28h0ZM278.77,88.62c-.41-.03-.83.06-1.22.28l-21.37,12.34c-1.03.59-1.38,1.9-.78,2.92s1.9,1.38,2.92.78l21.38-12.34c1.03-.59,1.38-1.9.78-2.92-.37-.64-1.02-1.02-1.7-1.07h0ZM35.07,101.36c-.83-.02-1.63.46-2,1.27-.48,1.08,0,2.34,1.08,2.83l9.48,4.23c1.08.48,2.34,0,2.83-1.08.48-1.08,0-2.34-1.08-2.83l-9.48-4.23c-.27-.12-.55-.18-.83-.19ZM284.97,101.45c-.28,0-.56.07-.83.19l-9.48,4.22c-1.08.48-1.57,1.74-1.09,2.82.48,1.08,1.74,1.57,2.83,1.09l9.48-4.22c1.08-.48,1.57-1.74,1.08-2.82-.36-.81-1.16-1.29-1.99-1.27h0ZM29.59,114.68c-.83.07-1.58.62-1.85,1.47-.37,1.13.24,2.33,1.37,2.7l23.47,7.65c1.13.37,2.33-.24,2.7-1.37.37-1.13-.24-2.33-1.37-2.7l-23.47-7.65c-.28-.09-.57-.12-.85-.1h0ZM290.44,114.77c-.28-.03-.56,0-.85.1l-23.47,7.63c-1.13.37-1.74,1.57-1.37,2.7.37,1.13,1.57,1.74,2.7,1.37l23.47-7.63c1.13-.37,1.74-1.57,1.37-2.7-.28-.85-1.02-1.4-1.85-1.47h0ZM26.17,128.65c-1-.01-1.89.68-2.11,1.7-.25,1.16.49,2.29,1.65,2.54l10.16,2.16c1.16.25,2.29-.49,2.54-1.65.25-1.16-.49-2.29-1.65-2.54l-10.15-2.16c-.14-.03-.29-.05-.43-.05h0ZM293.84,128.67c-.14,0-.29.02-.43.05l-10.16,2.16c-1.16.25-1.89,1.38-1.65,2.54.25,1.16,1.38,1.9,2.54,1.65l10.15-2.16c1.16-.25,1.9-1.38,1.65-2.54-.22-1.01-1.11-1.7-2.11-1.7h0ZM23.58,142.71c-.99.1-1.81.87-1.92,1.91-.12,1.18.72,2.23,1.9,2.35l24.54,2.6c1.18.12,2.23-.72,2.35-1.9.12-1.18-.72-2.23-1.9-2.35l-24.54-2.6c-.15-.02-.29-.02-.43,0h0ZM296.44,142.9c-.14-.02-.29-.02-.44,0l-24.55,2.56c-1.18.12-2.03,1.17-1.91,2.35.12,1.18,1.17,2.03,2.35,1.91l24.55-2.56c1.18-.12,2.03-1.17,1.91-2.35-.11-1.03-.92-1.81-1.92-1.91h0ZM23.16,157.1c-1.19,0-2.14.95-2.14,2.14s.95,2.14,2.14,2.14h10.38c1.19,0,2.14-.95,2.14-2.14s-.96-2.14-2.14-2.14h-10.38ZM286.45,157.1c-1.19,0-2.14.95-2.14,2.14,0,1.19.95,2.14,2.14,2.14h10.38c1.19,0,2.14-.95,2.14-2.14s-.95-2.14-2.14-2.14h-10.38ZM48.53,168.77c-.14-.02-.29-.02-.43,0l-24.55,2.56c-1.18.12-2.03,1.17-1.91,2.35.12,1.18,1.17,2.03,2.35,1.91l24.55-2.56c1.18-.12,2.03-1.17,1.91-2.35-.11-1.03-.92-1.81-1.92-1.91h0ZM271.46,168.92c-.99.1-1.81.87-1.92,1.91-.12,1.18.72,2.23,1.9,2.35l24.54,2.6c1.18.12,2.23-.72,2.35-1.9.12-1.18-.72-2.23-1.9-2.35l-24.54-2.6c-.15-.02-.29-.02-.44,0h0ZM36.29,183.38c-.14,0-.29.02-.43.05l-10.16,2.16c-1.16.25-1.89,1.38-1.65,2.54.25,1.16,1.38,1.89,2.54,1.65l10.16-2.16c1.16-.25,1.89-1.38,1.65-2.54-.22-1.01-1.11-1.7-2.11-1.7h0ZM283.7,183.4c-1-.01-1.89.68-2.11,1.7-.25,1.16.49,2.29,1.65,2.54l10.16,2.16c1.16.25,2.29-.49,2.54-1.65.25-1.16-.49-2.29-1.65-2.54l-10.15-2.16c-.14-.03-.29-.05-.43-.05h0ZM53.4,191.82c-.28-.03-.56,0-.84.1l-23.47,7.63c-1.13.37-1.74,1.57-1.37,2.7.37,1.13,1.57,1.74,2.7,1.37l23.47-7.63c1.13-.37,1.74-1.57,1.37-2.7-.28-.85-1.02-1.4-1.85-1.47h0ZM266.58,191.9c-.83.07-1.58.62-1.85,1.47-.37,1.13.24,2.33,1.37,2.7l23.47,7.65c1.13.37,2.33-.24,2.7-1.37.37-1.13-.24-2.33-1.37-2.7l-23.47-7.65c-.28-.09-.57-.12-.85-.1h0ZM44.44,208.54c-.28,0-.56.07-.83.19l-9.49,4.22c-1.08.48-1.57,1.74-1.08,2.82.48,1.08,1.74,1.57,2.82,1.08l9.49-4.22c1.08-.48,1.57-1.74,1.08-2.82-.36-.81-1.16-1.29-1.99-1.27h0ZM275.53,208.62c-.83-.02-1.63.46-2,1.27-.48,1.08,0,2.34,1.08,2.83l9.48,4.23c1.08.48,2.34,0,2.83-1.08.48-1.08,0-2.34-1.08-2.83l-9.48-4.23c-.27-.12-.55-.18-.83-.19h0ZM62.91,213.25c-.41-.03-.83.06-1.22.28l-21.37,12.34c-1.03.59-1.38,1.9-.78,2.92s1.9,1.38,2.92.78l21.37-12.34c1.03-.59,1.38-1.9.78-2.92-.37-.64-1.02-1.02-1.7-1.07h0ZM257.1,213.25c-.68.05-1.33.42-1.7,1.07-.59,1.03-.24,2.33.78,2.92l21.37,12.34c1.03.59,2.33.24,2.92-.78s.24-2.33-.78-2.92l-21.38-12.34c-.38-.22-.81-.31-1.22-.28h0ZM57.57,231.36c-.41.02-.82.15-1.18.41l-8.4,6.1c-.96.7-1.17,2.03-.48,2.99.7.96,2.03,1.17,2.99.48l8.4-6.1c.96-.7,1.17-2.03.48-2.99-.44-.6-1.12-.91-1.81-.88h0ZM262.38,231.44c-.69-.03-1.37.28-1.81.88-.7.96-.49,2.29.47,2.99l8.4,6.1c.96.7,2.29.49,2.99-.47.7-.96.49-2.29-.47-2.99l-8.4-6.1c-.36-.26-.77-.4-1.18-.41h0ZM76.61,232.17c-.55-.03-1.1.15-1.54.55l-18.36,16.5c-.88.79-.95,2.14-.16,3.02.79.88,2.14.95,3.02.16l18.36-16.5c.88-.79.95-2.14.16-3.02-.4-.44-.93-.68-1.48-.71ZM243.34,232.23c-.55.03-1.08.27-1.48.71-.79.88-.72,2.23.16,3.02l18.34,16.51c.88.79,2.23.72,3.02-.16.79-.88.72-2.23-.16-3.02l-18.34-16.51c-.44-.4-1-.58-1.54-.55h0ZM94.02,247.91c-.69-.03-1.37.28-1.81.88l-14.52,19.96c-.7.96-.49,2.29.47,2.99.96.7,2.29.49,2.99-.47l14.52-19.96c.7-.96.49-2.29-.47-2.99-.36-.26-.77-.4-1.18-.41ZM225.86,248c-.41.02-.82.15-1.18.41-.96.7-1.17,2.03-.48,2.99l14.49,19.98c.7.96,2.03,1.17,2.99.48.96-.7,1.17-2.03.48-2.99l-14.49-19.98c-.44-.6-1.12-.91-1.8-.88h0ZM75.28,251.08c-.55.03-1.08.27-1.48.71l-6.95,7.71c-.79.88-.72,2.23.16,3.02.88.79,2.23.72,3.02-.16l6.95-7.71c.79-.88.72-2.23-.16-3.02-.44-.4-1-.58-1.54-.55h0ZM244.71,251.09c-.55-.03-1.1.15-1.54.55-.88.79-.95,2.14-.16,3.02l6.95,7.72c.79.88,2.14.95,3.02.16.88-.79.95-2.14.16-3.02l-6.95-7.72c-.4-.44-.93-.68-1.48-.71h0ZM114.29,259.65c-.83-.02-1.63.46-1.99,1.27l-10.06,22.54c-.48,1.08,0,2.34,1.08,2.83,1.08.48,2.34,0,2.83-1.08l10.06-22.54c.48-1.08,0-2.34-1.08-2.83-.27-.12-.55-.18-.83-.19h0ZM205.57,259.71c-.28,0-.56.07-.83.19-1.08.48-1.57,1.74-1.09,2.82l10.02,22.55c.48,1.08,1.74,1.57,2.82,1.09,1.08-.48,1.57-1.74,1.09-2.82l-10.02-22.55c-.36-.81-1.16-1.29-1.99-1.27h0ZM96.62,266.62c-.68.05-1.33.42-1.7,1.07l-5.19,8.99c-.59,1.03-.24,2.33.78,2.92,1.03.59,2.33.24,2.92-.78l5.19-8.99c.59-1.03.24-2.33-.78-2.92-.38-.22-.81-.31-1.22-.28h0ZM223.38,266.62c-.41-.03-.83.06-1.22.28-1.03.59-1.38,1.9-.78,2.92l5.19,8.99c.59,1.03,1.9,1.38,2.92.78,1.03-.59,1.38-1.9.78-2.92l-5.19-8.99c-.37-.64-1.02-1.02-1.7-1.07h0ZM136.68,266.94c-1-.01-1.89.68-2.11,1.7l-5.13,24.14c-.25,1.16.49,2.29,1.65,2.54,1.16.25,2.29-.49,2.54-1.65l5.13-24.14c.25-1.16-.49-2.29-1.65-2.54-.14-.03-.29-.05-.43-.05h0ZM183.24,266.96c-.14,0-.29.02-.43.05-1.16.25-1.9,1.38-1.65,2.54l5.11,24.15c.25,1.16,1.38,1.9,2.54,1.65,1.16-.25,1.9-1.38,1.65-2.54l-5.11-24.14c-.22-1.01-1.11-1.71-2.1-1.7h0ZM160,269.39c-1.19,0-2.14.95-2.14,2.14v24.68c0,1.19.95,2.14,2.14,2.14s2.14-.95,2.14-2.14v-24.68c0-1.19-.95-2.14-2.14-2.14ZM120.72,277.37c-.83.07-1.58.63-1.85,1.47l-3.21,9.87c-.37,1.13.25,2.33,1.37,2.7,1.13.37,2.33-.25,2.7-1.37l3.21-9.87c.37-1.13-.25-2.33-1.37-2.7-.28-.09-.57-.12-.85-.1h0ZM199.26,277.37c-.28-.03-.56,0-.84.1-1.13.37-1.74,1.57-1.37,2.7l3.21,9.87c.37,1.13,1.57,1.74,2.7,1.37,1.13-.37,1.74-1.57,1.37-2.7l-3.21-9.87c-.28-.85-1.02-1.4-1.85-1.47h0ZM146.57,282.87c-.99.1-1.81.87-1.92,1.91l-1.09,10.33c-.12,1.18.73,2.23,1.9,2.35s2.23-.73,2.35-1.9l1.09-10.32c.12-1.18-.73-2.23-1.9-2.35-.15-.02-.29-.02-.43,0h0ZM173.35,282.88c-.14-.02-.29-.02-.44,0-1.18.12-2.03,1.17-1.91,2.35l1.08,10.33c.12,1.18,1.17,2.03,2.35,1.91,1.18-.12,2.03-1.17,1.91-2.35l-1.08-10.33c-.11-1.03-.92-1.81-1.92-1.91h0Z"/>
  <path class="cls-1" d="M260.29,73.65l-117.07,68.02-74.02,116.53,108.28-80.2,82.8-104.34Z"/>
  <path class="cls-4" d="M176.78,176.81l-33.56-35.14,119.04-80.07-85.48,115.22Z"/>
  <path class="cls-6" d="M176.78,176.81l-33.56-35.14-85.48,115.22,119.04-80.07Z"/>
  <path class="cls-3" d="M57.74,256.89l119.04-80.07,85.48-115.22L57.74,256.89Z"/>
</svg>